<?xml version="1.0" encoding="iso-8859-1"?>
<!-- Generator: Adobe Illustrator 19.0.0, SVG Export Plug-In . SVG Version: 6.00 Build 0)  -->
<svg version="1.1" id="Layer_1" xmlns="http://www.w3.org/2000/svg" xmlns:xlink="http://www.w3.org/1999/xlink" x="0px" y="0px"
	 viewBox="0 0 477.77 477.77" style="enable-background:new 0 0 477.77 477.77;" xml:space="preserve">
<g>
	<circle style="fill:#F24125;" cx="238.887" cy="238.885" r="109.052"/>
	<path style="fill:#FFFFFF;" d="M327.847,274.435c-0.54,0-1.089-0.088-1.628-0.274c-2.611-0.899-3.999-3.745-3.1-6.355
		c3.198-9.286,4.819-19.016,4.819-28.92c0-20.123-6.577-39.123-19.02-54.945c-1.707-2.171-1.331-5.314,0.839-7.021
		c2.17-1.708,5.315-1.331,7.021,0.839c13.842,17.603,21.159,38.74,21.159,61.127c0,11.015-1.805,21.84-5.364,32.176
		C331.861,273.133,329.922,274.435,327.847,274.435z"/>
	<path style="fill:#FFFFFF;" d="M299.199,171.773c-1.133,0-2.272-0.383-3.208-1.167c-4.397-3.684-9.162-6.953-14.164-9.718
		c-2.417-1.336-3.293-4.378-1.957-6.795c1.336-2.416,4.38-3.292,6.795-1.957c5.562,3.075,10.86,6.709,15.748,10.805
		c2.117,1.773,2.395,4.927,0.622,7.043C302.045,171.164,300.627,171.773,299.199,171.773z"/>
	<path style="fill:#FFFFFF;" d="M144.835,243.885c-2.761,0-5-2.239-5-5c0-37.231,20.616-70.989,53.802-88.1
		c2.454-1.267,5.47-0.302,6.735,2.152c1.266,2.455,0.302,5.47-2.152,6.735c-29.845,15.388-48.385,45.74-48.385,79.212
		C149.835,241.646,147.596,243.885,144.835,243.885z"/>
	<path style="fill:#FFFFFF;" d="M148.511,269.97c-2.17,0-4.168-1.424-4.801-3.613c-0.662-2.289-1.248-4.634-1.741-6.97
		c-0.571-2.702,1.157-5.355,3.858-5.926c2.704-0.574,5.355,1.157,5.926,3.858c0.443,2.099,0.969,4.205,1.563,6.26
		c0.767,2.653-0.762,5.425-3.415,6.192C149.438,269.906,148.971,269.97,148.511,269.97z"/>
	<ellipse style="opacity:0.25;enable-background:new    ;" cx="238.887" cy="278.775" rx="72.135" ry="53.379"/>
	<path style="fill:#333333;" d="M238.887,352.937c-62.888,0-114.052-51.164-114.052-114.052s51.164-114.052,114.052-114.052
		s114.052,51.164,114.052,114.052S301.775,352.937,238.887,352.937z M238.887,134.833c-57.375,0-104.052,46.677-104.052,104.052
		s46.677,104.052,104.052,104.052s104.052-46.677,104.052-104.052S296.261,134.833,238.887,134.833z"/>
	<path style="fill:#333333;" d="M238.89,300.998c-38.133,0-74.529-5.569-102.483-15.682c-32.334-11.684-50.142-28.174-50.142-46.432
		c0-18.247,17.807-34.737,50.142-46.432c2.597-0.938,5.463,0.405,6.402,3.001c0.939,2.597-0.404,5.463-3.001,6.402
		c-27.672,10.009-43.543,23.506-43.543,37.029c0,13.532,15.87,27.029,43.542,37.028c26.893,9.729,62.08,15.086,99.083,15.086
		c36.997,0,72.181-5.357,99.072-15.085c27.673-10,43.543-23.497,43.543-37.029c0-13.523-15.871-27.02-43.543-37.029
		c-2.597-0.939-3.94-3.806-3.001-6.402c0.938-2.597,3.806-3.944,6.402-3.001c32.334,11.695,50.142,28.185,50.142,46.432
		c0,18.258-17.808,34.748-50.143,46.433C313.41,295.429,277.017,300.998,238.89,300.998z"/>
	<path style="fill:#333333;" d="M238.89,318.514c-30.664,0-59.991-2.674-87.169-7.948c-32.14-6.219-59.365-15.783-78.729-27.658
		c-20.942-12.843-32.011-28.066-32.011-44.024c0-15.954,11.069-31.176,32.01-44.02c19.367-11.878,46.592-21.443,78.732-27.662
		c2.713-0.526,5.334,1.248,5.859,3.959c0.524,2.711-1.248,5.334-3.959,5.859C91.27,189.083,50.981,213.367,50.981,238.884
		s40.29,49.8,102.642,61.864c26.554,5.153,55.241,7.766,85.267,7.766c30.02,0,58.703-2.613,85.254-7.765
		c62.361-12.063,102.655-36.347,102.655-61.865s-40.293-49.801-102.652-61.864c-2.711-0.524-4.484-3.147-3.959-5.859
		c0.524-2.71,3.151-4.483,5.859-3.959c32.145,6.218,59.373,15.784,78.741,27.662c20.942,12.844,32.012,28.065,32.012,44.02
		c0,15.958-11.069,31.181-32.012,44.024c-19.365,11.875-46.593,21.439-78.741,27.658C298.872,315.84,269.547,318.514,238.89,318.514
		z"/>
	<path style="fill:#333333;" d="M238.89,334.375c-22.594,0-44.973-1.236-66.517-3.673C69.271,318.994,0,282.095,0,238.884
		c0-43.209,69.267-80.101,172.362-91.798c2.739-0.309,5.22,1.66,5.532,4.405c0.311,2.744-1.661,5.22-4.404,5.532
		c-46.918,5.323-89.057,16.551-118.654,31.614C25.923,203.35,10,221.196,10,238.884c0,17.689,15.923,35.537,44.837,50.254
		c29.599,15.067,71.741,26.299,118.662,31.626c21.17,2.396,43.171,3.61,65.391,3.61c22.213,0,44.211-1.214,65.383-3.61
		c46.919-5.328,89.061-16.56,118.66-31.626c28.914-14.718,44.837-32.565,44.837-50.254c0-17.688-15.923-35.534-44.835-50.248
		c-29.597-15.063-71.736-26.291-118.653-31.614c-2.744-0.312-4.716-2.788-4.405-5.532c0.312-2.744,2.786-4.713,5.532-4.405
		c103.095,11.698,172.361,48.589,172.361,91.798c0,43.211-69.271,80.11-172.371,91.817
		C283.854,333.139,261.477,334.375,238.89,334.375z"/>
	<circle style="fill:#44CC27;" cx="385.502" cy="232.233" r="16.454"/>
	<circle style="fill:#FCBC1D;" cx="52.453" cy="257.629" r="19.147"/>
	<circle style="fill:#1AA5E2;" cx="433.131" cy="287.788" r="22.209"/>
	<path style="opacity:0.25;enable-background:new    ;" d="M455.34,287.784c0,12.27-9.94,22.21-22.21,22.21
		c-10.34,0-19.03-7.07-21.5-16.64c2.88,1.38,6.1,2.14,9.5,2.14c12.27,0,22.21-9.94,22.21-22.21c0-1.92-0.25-3.79-0.7-5.57
		C450.15,271.274,455.34,278.924,455.34,287.784z"/>
	<path style="opacity:0.25;enable-background:new    ;" d="M397.938,221.824c6.171,6.171,6.171,16.169,0,22.34
		c-5.2,5.2-13.126,6.015-19.181,2.444c2.142-0.754,4.144-1.992,5.854-3.702c6.171-6.171,6.171-16.169,0-22.34
		c-0.966-0.966-2.032-1.78-3.153-2.449C387.025,216.131,393.482,217.369,397.938,221.824z"/>
	<path style="opacity:0.25;enable-background:new    ;" d="M38.706,270.663c-7.2-7.2-7.2-18.866,0-26.067
		c6.068-6.068,15.316-7.019,22.381-2.852c-2.5,0.88-4.835,2.324-6.83,4.319c-7.2,7.2-7.2,18.866,0,26.067
		c1.127,1.127,2.371,2.077,3.679,2.858C51.44,277.305,43.905,275.862,38.706,270.663z"/>
	<path style="fill:#333333;" d="M385.502,253.687c-11.83,0-21.454-9.624-21.454-21.454s9.624-21.454,21.454-21.454
		s21.454,9.624,21.454,21.454S397.332,253.687,385.502,253.687z M385.502,220.78c-6.315,0-11.454,5.138-11.454,11.454
		s5.138,11.454,11.454,11.454s11.454-5.138,11.454-11.454S391.817,220.78,385.502,220.78z"/>
	<path style="fill:#333333;" d="M52.453,281.776c-13.314,0-24.147-10.833-24.147-24.147c0-13.314,10.833-24.147,24.147-24.147
		S76.6,244.315,76.6,257.629C76.6,270.943,65.767,281.776,52.453,281.776z M52.453,243.482c-7.801,0-14.147,6.346-14.147,14.147
		c0,7.801,6.346,14.147,14.147,14.147S66.6,265.43,66.6,257.629C66.6,249.828,60.253,243.482,52.453,243.482z"/>
	<path style="fill:#333333;" d="M433.131,314.997c-15.003,0-27.208-12.206-27.208-27.208s12.206-27.209,27.208-27.209
		s27.209,12.206,27.209,27.209S448.134,314.997,433.131,314.997z M433.131,270.579c-9.489,0-17.208,7.72-17.208,17.209
		s7.72,17.208,17.208,17.208c9.489,0,17.209-7.72,17.209-17.208C450.34,278.299,442.62,270.579,433.131,270.579z"/>
</g>
<g>
</g>
<g>
</g>
<g>
</g>
<g>
</g>
<g>
</g>
<g>
</g>
<g>
</g>
<g>
</g>
<g>
</g>
<g>
</g>
<g>
</g>
<g>
</g>
<g>
</g>
<g>
</g>
<g>
</g>
</svg>
