<?xml version="1.0" standalone="no"?>
<!DOCTYPE svg PUBLIC "-//W3C//DTD SVG 20010904//EN"
 "http://www.w3.org/TR/2001/REC-SVG-20010904/DTD/svg10.dtd">
<svg version="1.0" xmlns="http://www.w3.org/2000/svg"
 width="256.000000pt" height="256.000000pt" viewBox="0 0 256.000000 256.000000"
 preserveAspectRatio="xMidYMid meet">
<metadata>
Created by potrace 1.11, written by Peter Selinger 2001-2013
</metadata>
<g transform="translate(0.000000,256.000000) scale(0.100000,-0.100000)"
fill="#000000" stroke="none">
<path d="M524 2305 c-30 -16 -62 -60 -58 -82 1 -7 2 -22 3 -33 0 -11 13 -33
29 -50 79 -89 214 3 168 114 -23 55 -86 78 -142 51z"/>
<path d="M1882 2039 c-47 -17 -48 -84 -2 -109 34 -18 89 17 85 55 -2 21 -25
53 -43 57 -10 3 -28 1 -40 -3z"/>
<path d="M309 1762 c-40 -5 -62 -33 -53 -68 6 -25 134 -164 150 -164 3 0 24
-15 47 -33 37 -30 190 -128 285 -183 19 -11 32 -26 32 -39 0 -16 -19 -27 -100
-58 -63 -24 -100 -44 -100 -53 0 -15 21 -19 35 -5 11 9 141 61 154 61 4 0 11
-22 14 -48 14 -116 90 -258 173 -323 l34 -26 87 18 c144 29 331 76 446 112
l109 34 -49 18 c-226 85 -672 299 -888 428 -338 201 -440 330 -245 313 36 -3
83 -8 105 -10 22 -3 11 1 -25 9 -66 15 -164 23 -211 17z"/>
<path d="M1150 1726 c-53 -15 -141 -58 -177 -86 -17 -13 -30 -17 -42 -11 -28
15 -92 30 -86 20 4 -5 26 -14 51 -20 l44 -11 -35 -39 c-43 -48 -82 -110 -91
-142 -5 -22 -1 -28 33 -45 21 -10 92 -46 158 -79 203 -102 441 -209 590 -264
33 -12 65 -26 71 -30 6 -5 25 -6 42 -3 24 5 34 15 45 43 19 47 30 98 31 141 1
24 5 34 14 32 8 -1 61 -30 119 -62 59 -33 108 -58 110 -56 2 2 -52 36 -120 75
l-124 71 -7 54 c-3 30 -15 76 -26 102 -11 26 -19 48 -17 50 5 5 137 20 209 23
11 1 15 6 11 16 -4 13 -18 15 -73 10 -38 -3 -91 -9 -118 -14 -47 -7 -51 -6
-65 18 -48 81 -184 178 -287 204 -70 18 -202 19 -260 3z"/>
<path d="M595 1725 c6 -3 31 -11 58 -19 48 -14 65 -12 25 3 -25 9 -99 24 -83
16z"/>
<path d="M743 1715 c-45 -32 -28 -95 26 -95 51 0 72 50 36 86 -28 28 -34 29
-62 9z"/>
<path d="M2064 1660 c-31 -12 -72 -66 -80 -105 -19 -102 84 -189 184 -155 106
36 123 191 27 250 -33 21 -93 25 -131 10z"/>
<path d="M2288 1495 c-4 -19 0 -28 16 -37 40 -20 66 -51 66 -78 0 -113 -332
-303 -782 -449 -112 -36 -398 -112 -468 -125 -14 -2 -74 -13 -135 -24 -60 -12
-135 -24 -165 -27 -30 -4 -77 -11 -105 -15 -85 -14 -364 -10 -425 6 -91 24
-130 63 -117 116 8 31 84 108 142 145 44 27 55 46 35 58 -13 8 -194 -112 -243
-161 -40 -40 -66 -81 -72 -116 -6 -27 18 -71 48 -91 80 -52 278 -72 529 -54
90 7 260 29 328 42 14 3 65 12 115 21 49 8 92 17 95 19 4 2 17 6 31 8 13 3 51
12 84 20 33 9 71 18 85 21 30 5 249 69 304 89 38 13 46 12 175 -31 231 -76
436 -116 524 -101 35 5 86 43 69 51 -4 2 -16 21 -27 42 -21 41 -135 145 -212
194 -24 15 -43 29 -43 32 0 3 21 17 47 30 158 84 288 183 319 242 9 17 18 46
19 65 6 60 -71 111 -196 129 -33 5 -37 3 -41 -21z m-48 -530 c104 -84 138
-148 85 -161 -59 -15 -265 26 -448 89 l-69 23 109 42 c59 24 131 53 158 66
l50 23 45 -30 c24 -17 56 -40 70 -52z"/>
<path d="M435 1190 c-76 -29 -74 -131 3 -161 34 -13 86 12 101 50 28 66 -38
136 -104 111z"/>
<path d="M1805 615 c-41 -40 -17 -95 41 -95 39 0 63 28 56 65 -9 50 -61 67
-97 30z"/>
<path d="M1113 424 c-48 -24 -63 -75 -38 -128 19 -39 47 -54 93 -51 94 8 121
139 37 179 -41 20 -52 20 -92 0z"/>
</g>
</svg>
