<?xml version="1.0" standalone="no"?>
<!DOCTYPE svg PUBLIC "-//W3C//DTD SVG 20010904//EN"
 "http://www.w3.org/TR/2001/REC-SVG-20010904/DTD/svg10.dtd">
<svg version="1.0" xmlns="http://www.w3.org/2000/svg"
 width="512.000000pt" height="512.000000pt" viewBox="0 0 512.000000 512.000000"
 preserveAspectRatio="xMidYMid meet">
<metadata>
Created by potrace 1.11, written by Peter Selinger 2001-2013
</metadata>
<g transform="translate(0.000000,512.000000) scale(0.100000,-0.100000)"
fill="#000000" stroke="none">
<path d="M4997 5084 c-1 -1 -47 -5 -102 -8 -220 -14 -468 -54 -690 -111 -102
-26 -296 -87 -350 -110 -16 -7 -61 -25 -100 -40 -255 -102 -565 -291 -779
-475 -124 -106 -590 -609 -791 -854 -22 -27 -45 -54 -50 -60 -10 -10 -81 -94
-180 -211 -24 -27 -114 -135 -200 -240 -87 -104 -168 -202 -180 -216 l-22 -26
-204 4 c-599 9 -648 9 -672 -1 -21 -9 -93 -94 -211 -249 -11 -16 -26 -34 -31
-40 -6 -7 -42 -52 -80 -102 -38 -49 -72 -92 -75 -95 -3 -3 -28 -36 -57 -73
-65 -85 -62 -97 25 -112 46 -8 445 -92 519 -110 34 -8 79 -18 100 -21 47 -7
46 -6 59 -63 10 -47 9 -51 -58 -202 -74 -168 -75 -176 -33 -259 75 -148 374
-455 543 -557 106 -63 111 -63 285 13 83 37 157 66 162 66 14 0 100 -14 101
-16 2 -2 116 -537 121 -566 18 -105 40 -175 56 -178 15 -3 571 420 625 476
l23 25 -5 446 -5 446 171 140 c94 77 176 145 182 150 6 6 38 32 71 60 61 50
575 491 630 540 158 140 320 291 424 395 236 235 443 547 584 881 44 102 141
381 151 430 2 13 16 71 30 129 23 98 58 290 71 388 3 23 7 59 10 80 15 123 22
308 12 319 -6 5 -75 11 -80 7z m-1339 -1155 c113 -36 187 -98 241 -199 121
-227 -5 -508 -256 -573 -262 -68 -515 143 -498 415 9 138 97 271 221 333 82
41 208 51 292 24z"/>
<path d="M448 1318 c-109 -107 -158 -170 -221 -289 -103 -190 -163 -401 -193
-669 -8 -75 -13 -297 -7 -320 4 -16 16 -18 146 -15 78 2 161 6 183 9 23 4 61
8 85 10 80 8 252 47 354 81 126 43 244 100 343 167 79 54 272 239 272 262 0 7
-19 23 -43 36 l-42 22 -45 -30 c-128 -86 -315 -158 -480 -186 -19 -3 -46 -9
-60 -12 -46 -10 -164 -18 -270 -19 l-105 0 1 110 c2 312 81 606 215 801 l32
47 -24 43 c-13 24 -29 44 -35 44 -6 0 -53 -42 -106 -92z"/>
</g>
</svg>
