<?xml version="1.0" standalone="no"?>
<!DOCTYPE svg PUBLIC "-//W3C//DTD SVG 20010904//EN"
 "http://www.w3.org/TR/2001/REC-SVG-20010904/DTD/svg10.dtd">
<svg version="1.0" xmlns="http://www.w3.org/2000/svg"
 width="180.000000pt" height="180.000000pt" viewBox="0 0 180.000000 180.000000"
 preserveAspectRatio="xMidYMid meet">
<metadata>
Created by potrace 1.11, written by Peter Selinger 2001-2013
</metadata>
<g transform="translate(0.000000,180.000000) scale(0.100000,-0.100000)"
fill="#000000" stroke="none">
<path d="M356 1609 c-34 -27 -36 -77 -3 -107 62 -58 152 11 113 87 -24 46 -67
54 -110 20z"/>
<path d="M1318 1429 c-44 -25 -3 -93 42 -69 26 14 26 56 1 70 -23 12 -22 12
-43 -1z"/>
<path d="M190 1225 c-20 -24 -3 -60 52 -111 54 -48 220 -162 271 -185 47 -22
34 -44 -43 -74 -38 -15 -70 -31 -70 -36 0 -13 3 -12 72 16 34 14 63 25 65 25
2 0 3 -9 3 -20 0 -54 45 -154 93 -207 49 -53 51 -54 91 -48 61 10 336 81 375
97 l33 13 -118 49 c-165 68 -491 233 -599 304 -49 32 -110 77 -133 99 -54 52
-53 75 3 84 35 5 33 6 -21 8 -44 1 -65 -3 -74 -14z"/>
<path d="M775 1203 c-22 -9 -55 -27 -74 -39 -28 -19 -38 -21 -63 -12 -16 6
-31 8 -34 5 -3 -3 8 -8 25 -12 l31 -7 -34 -41 c-36 -45 -56 -79 -56 -96 0 -14
304 -162 482 -235 109 -45 142 -55 157 -47 22 12 41 61 41 106 0 43 7 47 44
28 36 -18 29 -8 -11 16 -25 16 -41 60 -56 151 -1 11 14 16 66 22 38 3 71 9 75
12 13 14 -11 16 -83 7 -78 -9 -78 -9 -99 17 -37 48 -80 82 -136 110 -70 34
-210 42 -275 15z"/>
<path d="M511 1192 c-13 -25 5 -52 34 -52 15 0 26 7 30 20 13 41 -44 70 -64
32z"/>
<path d="M1453 1165 c-46 -20 -68 -68 -54 -116 22 -72 108 -94 162 -40 39 40
40 89 2 130 -34 36 -68 44 -110 26z"/>
<path d="M1610 1051 c0 -11 9 -25 20 -31 51 -27 43 -81 -20 -134 -45 -37 -170
-110 -177 -102 -3 3 -11 -1 -17 -8 -6 -8 -63 -35 -127 -60 -488 -191 -1089
-265 -1163 -144 -16 27 18 82 75 120 42 28 63 58 43 58 -16 0 -126 -74 -163
-110 -77 -75 -75 -125 6 -163 44 -20 63 -22 238 -22 152 1 216 5 320 24 117
20 326 70 491 117 l61 17 99 -31 c207 -66 357 -88 388 -56 9 8 16 18 16 20 0
15 -32 62 -56 84 l-28 25 17 -27 c39 -63 8 -78 -114 -53 -83 16 -244 64 -237
70 15 14 211 86 222 82 9 -4 13 -1 11 6 -2 7 33 34 80 61 92 54 170 124 180
163 12 50 -37 91 -127 108 -34 6 -38 5 -38 -14z"/>
<path d="M287 822 c-35 -38 -9 -102 40 -102 47 0 71 71 35 103 -24 22 -55 21
-75 -1z"/>
<path d="M1330 836 c0 -3 14 -12 30 -21 17 -9 30 -13 30 -11 0 3 -13 12 -30
21 -16 9 -30 13 -30 11z"/>
<path d="M1266 428 c-13 -19 -14 -25 -2 -43 18 -26 40 -30 60 -10 20 21 20 39
0 59 -21 22 -40 20 -58 -6z"/>
<path d="M785 298 c-27 -15 -35 -28 -35 -60 0 -58 69 -89 110 -48 38 38 12
121 -37 120 -10 0 -27 -6 -38 -12z"/>
</g>
</svg>
